<svg aria-hidden="true" style="width:0;height:0;position:absolute;overflow:hidden" xmlns="http://www.w3.org/2000/svg"><defs><symbol id="icon-menu" viewBox="0 0 56 32"><path d="M1.882.941h52.706a1.882 1.882 0 1 1 0 3.764H1.882a1.882 1.882 0 1 1 0-3.764zM1.882 14.118h52.706a1.882 1.882 0 1 1 0 3.764H1.882a1.882 1.882 0 1 1 0-3.764zM1.882 27.294h52.706a1.882 1.882 0 1 1 0 3.764H1.882a1.882 1.882 0 1 1 0-3.764z"/></symbol><symbol id="icon-earch" viewBox="0 0 31 32"><path fill="#fd5103" style="fill:var(--color1,#fd5103)" d="M12.8 23.68c2.272 0 4.478-.761 6.268-2.161l5.627 5.627 1.81-1.81-5.627-5.627a10.184 10.184 0 0 0 2.162-6.269c0-5.646-4.594-10.24-10.24-10.24S2.56 7.794 2.56 13.44 7.154 23.68 12.8 23.68zm0-17.92c4.236 0 7.68 3.444 7.68 7.68s-3.444 7.68-7.68 7.68-7.68-3.444-7.68-7.68 3.444-7.68 7.68-7.68z"/></symbol><symbol id="icon-close" viewBox="0 0 32 32"><path d="m17.253 16 7.369-7.369a.886.886 0 0 0-.047-1.207.888.888 0 0 0-1.207-.047l-7.369 7.369L8.63 7.368A.892.892 0 0 0 7.368 8.63l7.378 7.369-7.378 7.369a.891.891 0 0 0-.249.999.881.881 0 0 0 .503.503.897.897 0 0 0 .712-.027.891.891 0 0 0 .288-.222L16 17.252l7.369 7.369a.886.886 0 0 0 1.207-.047.888.888 0 0 0 .047-1.207l-7.369-7.369z"/></symbol><symbol id="icon-arrow" viewBox="0 0 32 32"><path fill="#fd5103" style="fill:var(--color1,#fd5103)" d="m7.79 12.791 7.543 7.543 7.543-7.543-.943-.943-6.6 6.6-6.6-6.6-.943.943z"/><path fill="#fd5103" style="fill:var(--color1,#fd5103)" d="m7.79 12.791 7.543 7.543 7.543-7.543-.943-.943-6.6 6.6-6.6-6.6-.943.943z"/></symbol><symbol id="icon-toggle" viewBox="0 0 61 32"><path fill="#fff" style="fill:var(--color2,#fff)" d="M15.238 1.223h30.476c8.161 0 14.777 6.616 14.777 14.777s-6.616 14.777-14.777 14.777H15.238C7.077 30.777.461 24.161.461 16S7.077 1.223 15.238 1.223z"/><path fill="#fd5103" style="fill:var(--color1,#fd5103)" d="M25.905 16c0 6.733-5.458 12.19-12.19 12.19S1.525 22.732 1.525 16c0-6.733 5.458-12.19 12.19-12.19S25.905 9.268 25.905 16z"/><path fill="none" stroke="#fd5103" style="stroke:var(--color1,#fd5103)" stroke-width=".921" d="M15.238 1.223h30.476c8.161 0 14.777 6.616 14.777 14.777s-6.616 14.777-14.777 14.777H15.238C7.077 30.777.461 24.161.461 16S7.077 1.223 15.238 1.223z"/></symbol><symbol id="icon-heart" viewBox="0 0 37 32"><path fill="#fd5103" style="fill:var(--color1,#fd5103)" d="M26.674 2.56c.92-.001 1.83.184 2.678.545s1.616.889 2.261 1.554c1.327 1.365 2.071 3.204 2.071 5.12s-.744 3.755-2.071 5.12L18.527 28.326 5.441 14.899c-1.327-1.365-2.071-3.204-2.071-5.12s.744-3.755 2.071-5.12c.644-.665 1.413-1.193 2.261-1.554a6.833 6.833 0 0 1 5.356 0c.848.36 1.617.889 2.261 1.554l3.208 3.328 3.196-3.302c.642-.673 1.411-1.208 2.262-1.574s1.766-.553 2.69-.551zm0-2.56c-1.256-.001-2.5.252-3.658.744s-2.208 1.214-3.087 2.123l-1.402 1.434-1.402-1.434c-.881-.907-1.93-1.628-3.088-2.119S11.636.003 10.38.003c-1.256 0-2.499.253-3.657.745S4.515 1.96 3.635 2.867C1.844 4.715.84 7.202.84 9.792s1.004 5.077 2.795 6.925L18.528 32l14.893-15.283c1.791-1.848 2.795-4.335 2.795-6.925s-1.004-5.077-2.795-6.925c-.88-.908-1.93-1.629-3.088-2.121S27.932 0 26.676 0z"/></symbol></defs></svg>