<?xml version="1.0" standalone="no"?>
<!DOCTYPE svg PUBLIC "-//W3C//DTD SVG 20010904//EN"
 "http://www.w3.org/TR/2001/REC-SVG-20010904/DTD/svg10.dtd">
<svg version="1.0" xmlns="http://www.w3.org/2000/svg"
 width="512.000000pt" height="512.000000pt" viewBox="0 0 512.000000 512.000000"
 preserveAspectRatio="xMidYMid meet">
<metadata>
Created by potrace 1.14, written by Peter Selinger 2001-2017
</metadata>
<g transform="translate(0.000000,512.000000) scale(0.100000,-0.100000)"
fill="#000000" stroke="none">
<path d="M4020 5103 c-182 -50 -323 -209 -349 -396 -15 -107 7 -147 82 -147
50 0 75 32 86 113 16 116 76 198 181 250 68 33 187 31 257 -6 64 -33 115 -85
145 -146 32 -65 33 -196 1 -261 -47 -95 -146 -165 -250 -176 -31 -3 -73 2
-122 15 -78 21 -103 18 -132 -15 -9 -11 -49 -92 -89 -181 l-74 -163 -666 0
-667 0 -7 61 c-18 156 -102 359 -205 497 -404 536 -1184 580 -1643 94 -345
-366 -392 -911 -116 -1332 58 -89 194 -228 281 -288 177 -122 385 -191 578
-192 66 0 78 3 97 23 23 25 29 75 12 106 -14 27 -54 39 -150 45 -314 21 -601
223 -740 519 -111 236 -113 521 -6 752 115 249 313 419 583 502 79 24 103 27
243 27 140 0 164 -3 245 -28 331 -101 571 -359 640 -688 8 -38 15 -76 15 -84
0 -12 -68 -14 -464 -14 -447 0 -464 -1 -489 -20 -29 -23 -41 -60 -28 -92 5
-13 390 -491 855 -1063 l845 -1040 1 -802 0 -803 -349 0 -350 0 -27 -24 c-39
-33 -39 -89 0 -122 l27 -24 785 0 786 0 29 29 c38 38 38 74 0 112 l-29 29
-351 0 -351 0 0 800 0 801 838 1032 c461 568 846 1043 855 1057 25 36 21 68
-12 101 l-29 29 -232 0 -232 0 -29 -29 c-36 -36 -37 -70 -3 -110 l25 -30 130
-3 129 -3 -159 -195 -158 -195 -99 -44 c-177 -79 -350 -127 -511 -144 l-52 -6
33 72 c18 40 113 251 212 470 l179 397 75 -6 c229 -19 435 120 502 339 27 89
22 224 -11 310 -49 125 -168 240 -291 281 -81 26 -201 30 -280 9z m-376 -1360
c-19 -43 -79 -174 -132 -292 l-96 -213 -65 6 c-35 4 -134 25 -220 48 -252 66
-344 86 -463 98 -120 13 -263 6 -289 -13 -43 -32 -51 -96 -16 -131 22 -22 33
-23 198 -29 185 -6 208 -10 521 -93 82 -21 148 -42 148 -46 0 -4 -42 -50 -94
-102 -143 -142 -311 -248 -500 -312 -39 -13 -79 -33 -91 -44 l-21 -20 -247
302 c-136 167 -347 425 -468 573 -122 149 -234 287 -251 308 l-30 37 1076 0
1075 0 -35 -77z"/>
<path d="M1314 4555 c-41 -17 -58 -66 -52 -151 3 -49 9 -69 28 -89 31 -33 79
-33 117 -1 27 24 28 27 26 112 -3 77 -6 91 -25 110 -31 30 -57 35 -94 19z"/>
<path d="M735 3978 c-52 -28 -62 -92 -20 -133 22 -23 32 -25 109 -25 74 0 88
3 110 23 38 34 39 85 1 122 -21 22 -32 25 -102 25 -43 0 -87 -6 -98 -12z"/>
</g>
</svg>
